<svg xmlns="http://www.w3.org/2000/svg" width="960" height="600" viewBox="0 0 960 600" role="img" aria-labelledby="title"><title id="title">Advertising: focused graphic target</title><defs><pattern id="grain" width="31" height="29" patternUnits="userSpaceOnUse"><circle cx="3" cy="5" r=".65" fill="#000" opacity=".09"/><circle cx="21" cy="18" r=".6" fill="#fff" opacity=".15"/><circle cx="12" cy="26" r=".45" fill="#000" opacity=".07"/></pattern></defs><rect width="960" height="600" fill="#ac4d34"/>
<rect x="39" y="32" width="882" height="536" fill="none" stroke="#efb492" stroke-opacity=".65"/>
<text x="60" y="78" font-family="Arial,Helvetica,sans-serif" font-size="18" font-weight="700" letter-spacing="-.5" fill="#f0c6ac">S—AIM</text>
<text x="899" y="77" text-anchor="end" font-family="Arial,Helvetica,sans-serif" font-size="12" letter-spacing="2" fill="#f0c6ac">MAKE AN IMPACT</text>
<g transform="translate(564 314) rotate(-19)">
<ellipse rx="252" ry="210" fill="#1e251e"/>
<ellipse rx="211" ry="176" fill="#cc7351"/>
<ellipse rx="169" ry="142" fill="#1e251e"/>
<ellipse rx="128" ry="108" fill="#db8a62"/>
<ellipse rx="86" ry="74" fill="#1e251e"/>
<ellipse rx="44" ry="39" fill="#e5a078"/>
</g>
<path d="M564 238v152M488 314h152" stroke="#f0c6ac" stroke-opacity=".8" stroke-width="1.3"/>
<path d="M142 445L559 318" fill="none" stroke="#f2c5a7" stroke-width="10"/>
<path d="M504 297l62 19-40 51" fill="none" stroke="#f2c5a7" stroke-width="10" stroke-linejoin="miter"/>
<path d="M106 488l-8-72 54-16 8 72zM154 470l-8-72 22-7 8 72z" fill="#e9ab87"/>
<text x="60" y="545" font-family="Arial,Helvetica,sans-serif" font-size="14" letter-spacing="2" fill="#f0c6ac">PRECISION / PERFORMANCE</text>
<path d="M872 518v29m-14-14h29" stroke="#f0c6ac"/>
<rect width="960" height="600" fill="url(#grain)" pointer-events="none"/></svg>